# xmcd
#
# Track frame offsets:
#	150
#	4869
#	22818
#	40407
#	56744
#	72530
#	90271
#	107670
#	127578
#	150345
#	168779
#	187071
#
# Disc length: 2554 seconds
#
# Revision: 2
# Processed by: cddbd v1.4PL0 Copyright (c) Steve Scherf et al.
# Submitted via: dBpowerAMP V4.0
#
DISCID=8909f80c
DTITLE=Carmen Consoli - Confusa e Felice
DYEAR=1997
DGENRE=
TTITLE0=Bonsai #1
TTITLE1=Uguale a Ieri
TTITLE2=Diversi
TTITLE3=Confusa e Felice
TTITLE4=Fidarmi Delle Tue Carezze
TTITLE5=Un Sorso In Piu'
TTITLE6=Venere
TTITLE7=Per Niente Stanca
TTITLE8=Fino All'ultimo
TTITLE9=Blunotte
TTITLE10=La Bellezza Delle Cose
TTITLE11=Bonsai #2
EXTD=
EXTT0=
EXTT1=
EXTT2=
EXTT3=
EXTT4=
EXTT5=
EXTT6=
EXTT7=
EXTT8=
EXTT9=
EXTT10=
EXTT11=
PLAYORDER=
